<?xml version="1.0" encoding="UTF-8"?> <svg xmlns="http://www.w3.org/2000/svg" width="260" height="81" viewBox="0 0 260 81" fill="none"> <path d="M86.8427 20.5469C85.7594 18.7784 84.1614 17.4149 82.0625 16.4564C79.95 15.4979 77.35 15.0254 74.2489 15.0254H61.5333V51.5294H70.376V38.8529H74.2489C77.35 38.8529 79.9635 38.3804 82.0625 37.4219C84.175 36.4634 85.7729 35.0999 86.8427 33.3044C87.926 31.5089 88.4677 29.4029 88.4677 26.9729C88.4677 24.4619 87.926 22.3154 86.8427 20.5469ZM78.4198 30.4019C77.4042 31.1984 76.0094 31.6034 74.2354 31.6034H70.3625V22.2749H74.2354C76.0094 22.2749 77.4042 22.6799 78.4198 23.4764C79.4354 24.2729 79.9364 25.4474 79.9364 26.9729C79.9364 28.4579 79.4354 29.6054 78.4198 30.4019Z" fill="white"></path> <path d="M142.932 30.3747C141.971 29.2272 140.644 28.3497 138.951 27.7422C137.258 27.1347 135.335 26.8242 133.169 26.8242C131.002 26.8242 128.971 27.1212 127.075 27.7152C125.179 28.3092 123.541 28.9302 122.186 29.5917L124.854 34.9107C125.233 34.6677 125.816 34.3842 126.574 34.0467C127.346 33.7227 128.24 33.4257 129.269 33.1827C130.298 32.9397 131.381 32.8182 132.532 32.8182C133.859 32.8182 134.889 33.1287 135.647 33.7362C136.392 34.3437 136.771 35.1537 136.771 36.1662V38.3397C136.757 38.3397 136.757 38.3262 136.744 38.3262C135.918 37.9212 134.97 37.5972 133.873 37.3407C132.776 37.0842 131.611 36.9492 130.393 36.9492C128.307 36.9492 126.466 37.2597 124.895 37.8942C123.324 38.5152 122.119 39.4062 121.266 40.5537C120.412 41.7012 119.979 43.0782 119.979 44.6712C119.979 46.2372 120.358 47.5602 121.103 48.6537C121.848 49.7472 122.891 50.5842 124.218 51.1512C125.545 51.7182 127.048 52.0152 128.714 52.0152C130.379 52.0152 131.896 51.7317 133.236 51.1512C134.577 50.5842 135.647 49.7472 136.432 48.6537C136.554 48.4782 136.663 48.3027 136.771 48.1137V51.4887H144.354V34.6002C144.381 32.9397 143.894 31.5222 142.932 30.3747ZM136.053 44.8197C135.566 45.5487 134.916 46.0752 134.09 46.3857C133.264 46.6962 132.37 46.8582 131.395 46.8582C130.772 46.8582 130.19 46.7637 129.675 46.5747C129.147 46.3857 128.727 46.1022 128.416 45.7377C128.104 45.3732 127.942 44.9142 127.942 44.3607C127.942 43.6992 128.104 43.1457 128.443 42.6867C128.768 42.2412 129.255 41.8767 129.905 41.6202C130.555 41.3637 131.327 41.2287 132.234 41.2287C133.589 41.2287 134.753 41.3907 135.715 41.7282C136.067 41.8497 136.432 42.0117 136.771 42.1737C136.744 43.2807 136.5 44.1582 136.053 44.8197Z" fill="white"></path> <path d="M152.398 41.5661C152.398 42.8756 152.032 43.7261 151.315 44.1176C150.583 44.5091 149.717 44.6981 148.701 44.6981V51.5156C151.504 51.5156 153.711 51.2186 155.323 50.6381C156.921 50.0441 158.072 49.1531 158.749 47.9651C159.426 46.7636 159.765 45.2651 159.765 43.4426V35.2076H166.292V51.5291H173.645V28.2686H152.425V41.5661H152.398Z" fill="white"></path> <path d="M183.706 51.5156L195.961 39.7436V51.5156H203.315V28.2686H199.157L186.943 40.0001V28.2686H179.535V51.5156H183.706Z" fill="white"></path> <path d="M256.682 28.2686H233.391V34.5866H241.353V51.5156H248.706V34.5866H256.682V28.2686Z" fill="white"></path> <path d="M227.595 42.5516L227.189 42.9971C225.55 44.7926 223.708 45.6701 221.555 45.6701C219.835 45.6701 218.4 45.1166 217.154 43.9691C215.922 42.8351 215.326 41.3771 215.326 39.5006C215.326 37.6646 215.908 36.2201 217.114 35.0861C218.319 33.9386 219.7 33.3851 221.311 33.3851C223.478 33.3851 225.306 34.1006 226.755 35.5181L227.189 35.9366L230.466 30.4286L230.208 30.1721C228.028 27.9986 224.778 26.8916 220.54 26.8916C216.951 26.8916 213.931 28.1201 211.589 30.5366C209.246 32.9531 208.054 35.9636 208.054 39.5006C208.054 43.2536 209.259 46.3181 211.656 48.6266C214.04 50.9351 217.222 52.0961 221.122 52.0961C223.099 52.0961 224.954 51.7316 226.647 51.0296C228.353 50.3141 229.734 49.2611 230.736 47.8976L230.926 47.6411L227.595 42.5516Z" fill="white"></path> <path d="M109.092 43.4291C108.794 43.8206 108.469 44.1851 108.103 44.4956C107.548 44.9681 106.898 45.3191 106.14 45.5621C105.395 45.8051 104.528 45.9266 103.553 45.9266C102.51 45.9266 101.562 45.6971 100.723 45.2516C99.8833 44.8061 99.2198 44.0636 98.7052 43.0646C98.3802 42.4301 98.1635 41.6606 98.0552 40.7696H116.418C116.485 40.3511 116.526 39.9596 116.526 39.5951C116.526 39.2306 116.526 38.9471 116.526 38.7311C116.526 36.1931 116.025 34.0196 115.036 32.2106C114.048 30.4016 112.572 29.0111 110.649 28.0391C108.712 27.0671 106.356 26.5811 103.567 26.5811C100.953 26.5811 98.7052 26.9996 96.85 27.8366C94.9812 28.6736 93.5052 29.8346 92.4083 31.3331C91.3115 32.8316 90.5802 34.5596 90.2417 36.5441C90.174 36.9626 90.1198 37.3811 90.0792 37.7996C90.0385 38.2181 90.025 38.6501 90.025 39.1091C90.025 41.5121 90.5531 43.6586 91.6229 45.5486C92.6927 47.4386 94.2365 48.9236 96.2812 50.0036C98.326 51.0836 100.791 51.6236 103.689 51.6236C106.018 51.6236 108.008 51.3401 109.62 50.7596C111.245 50.1926 112.612 49.3691 113.723 48.3026C114.305 47.7491 114.847 47.1281 115.348 46.4531L109.092 43.4291ZM98.7323 34.5866C99.1792 33.6956 99.8021 33.0206 100.587 32.5481C101.373 32.0756 102.307 31.8461 103.391 31.8461C104.339 31.8461 105.124 32.0351 105.774 32.3996C106.424 32.7641 106.925 33.2771 107.291 33.9386C107.656 34.6001 107.914 35.4101 108.049 36.3956H98.1771C98.2719 35.7206 98.4614 35.1131 98.7323 34.5866Z" fill="white"></path> <path d="M41.1667 2.02539H16.7375C15.6677 2.02539 14.7333 2.71389 14.3948 3.71289L3.37189 37.3954C3.15522 38.0704 3.65626 38.7724 4.37397 38.7724H17.0625C17.7802 38.7724 18.2948 39.4744 18.0646 40.1494L5.56564 78.2869C5.30834 79.0564 6.33751 79.5694 6.81147 78.9079L39.1083 33.2509C39.5958 32.5489 39.0948 31.5904 38.2417 31.5904H24.3073C23.4542 31.5904 22.9531 30.6319 23.4406 29.9299L42.0333 3.68589C42.5208 2.98389 42.0198 2.02539 41.1667 2.02539Z" fill="url(#paint0_linear_1244_11032)"></path> <defs> <linearGradient id="paint0_linear_1244_11032" x1="22.7728" y1="2.02539" x2="22.7728" y2="79.2122" gradientUnits="userSpaceOnUse"> <stop stop-color="#9B35C5"></stop> <stop offset="0.900055" stop-color="#00ACFF"></stop> </linearGradient> </defs> </svg> 